PathFileType	4	(X/Y/Z)	C:\Users\Biomechanik\SynologyDrive\AlexP\Athlete_03\Athlete_3_25_03_31\Static_01\marker_experimental.trc
DataRate	CameraRate	NumFrames	NumMarkers	Units	OrigDataRate	OrigDataStartFrame	OrigNumFrames
200.000000	200.000000	4	74	mm	200.000000	0	372
Frame#	Time	BL			BR			GLAB			RFHD			LFHD			C7			T6			SPINMOL			SPINM2			SPINM3			T12			BELTOL			BELT2			BELT3			SACROL			SACR2			SACR3			LASI			RASI			LPSI			RPSI			LTHOL			LTH2			LTH3			LKNEL			LKNEM			LFIB			LSHAOL			LSHA2			LSHA3			LMALL			LMALM			LHEE			LTOE			LM5			RTHOL			RTH2			RTH3			RKNEL			RKNEM			RFIB			RSHAOL			RSHA2			RSHA3			RMALL			RMALM			RHEE			RTOE			RM5			STRN			XIPH			LACR			LUAOL			LUA2			LUA3			LCUBL			LCUBM			LLAOL			LLA2			LLA3			LWRR			LWRU			RACR			RUAOL			RUA2			RUA3			RCUBL			RCUBM			RLAOL			RLA2			RLA3			RWRR			RWRU			*73			
		X1	Y1	Z1	X2	Y2	Z2	X3	Y3	Z3	X4	Y4	Z4	X5	Y5	Z5	X6	Y6	Z6	X7	Y7	Z7	X8	Y8	Z8	X9	Y9	Z9	X10	Y10	Z10	X11	Y11	Z11	X12	Y12	Z12	X13	Y13	Z13	X14	Y14	Z14	X15	Y15	Z15	X16	Y16	Z16	X17	Y17	Z17	X18	Y18	Z18	X19	Y19	Z19	X20	Y20	Z20	X21	Y21	Z21	X22	Y22	Z22	X23	Y23	Z23	X24	Y24	Z24	X25	Y25	Z25	X26	Y26	Z26	X27	Y27	Z27	X28	Y28	Z28	X29	Y29	Z29	X30	Y30	Z30	X31	Y31	Z31	X32	Y32	Z32	X33	Y33	Z33	X34	Y34	Z34	X35	Y35	Z35	X36	Y36	Z36	X37	Y37	Z37	X38	Y38	Z38	X39	Y39	Z39	X40	Y40	Z40	X41	Y41	Z41	X42	Y42	Z42	X43	Y43	Z43	X44	Y44	Z44	X45	Y45	Z45	X46	Y46	Z46	X47	Y47	Z47	X48	Y48	Z48	X49	Y49	Z49	X50	Y50	Z50	X51	Y51	Z51	X52	Y52	Z52	X53	Y53	Z53	X54	Y54	Z54	X55	Y55	Z55	X56	Y56	Z56	X57	Y57	Z57	X58	Y58	Z58	X59	Y59	Z59	X60	Y60	Z60	X61	Y61	Z61	X62	Y62	Z62	X63	Y63	Z63	X64	Y64	Z64	X65	Y65	Z65	X66	Y66	Z66	X67	Y67	Z67	X68	Y68	Z68	X69	Y69	Z69	X70	Y70	Z70	X71	Y71	Z71	X72	Y72	Z72	X73	Y73	Z73	X74	Y74	Z74	

1	0	960.718017578125	36.18698501586926	-1933.673217773438	1063.203369140625	33.0208396911621	86.68656921386719	353.3017578125	1606.518310546875	-1193.857055664062	302.0399475097656	1632.539916992188	-1131.709716796875	312.1338806152344	1631.849609375	-1267.905395507812	130.7647094726562	1438.553344726562	-1211.394287109375	91.23326110839844	1266.41943359375	-1220.35693359375	89.40036010742188	1229.43896484375	-1242.268920898438	83.58563232421875	1220.470947265625	-1192.810180664062	96.82510375976562	1165.006958007812	-1227.1630859375	113.459846496582	1101.422241210938	-1223.85791015625	85.77527618408203	1080.132690429688	-1238.470581054688	85.06490325927734	1076.956176757812	-1188.137451171875	79.01953887939453	1017.340270996094	-1218.04443359375	95.47402954101562	957.6846923828126	-1242.179565429688	95.91610717773438	955.6389770507814	-1190.843139648438	77.76663970947266	898.2088623046876	-1218.19970703125	326.811767578125	936.1593627929689	-1332.999389648438	317.1637268066406	927.6463623046876	-1085.899169921875	108.2323684692383	975.1857299804689	-1260.906982421875	108.1757507324219	966.4047241210939	-1176.497314453125	188.9454193115234	682.8096313476564	-1402.768676757812	140.0723876953125	629.0259399414064	-1369.904541015625	186.4069976806641	622.8459472656251	-1388.649780273438	236.0099945068359	487.5551757812501	-1384.974731445312	257.3056945800781	464.4320068359376	-1262.240234375	193.6183013916016	425.2701110839844	-1389.710327148438	159.7259368896484	328.094207763672	-1404.812377929688	110.2872467041016	266.7998962402344	-1391.696166992188	159.4273834228516	266.3280639648439	-1402.822509765625	142.6290588378906	81.14400482177743	-1381.731079101562	183.4501647949219	89.70429229736337	-1295.841430664062	94.86508178710938	67.18993377685555	-1318.435913085938	309.8478698730469	47.75223541259774	-1348.644165039062	253.0249481201172	31.26865959167489	-1443.687622070312	154.9458770751953	696.2493286132814	-1026.7978515625	205.9338836669922	638.2988281250001	-1006.356140136719	162.8743286132812	635.0602416992189	-1031.646484375	198.3740997314453	496.6785583496094	-1027.225708007812	237.0802001953125	464.5838317871094	-1148.611206054688	152.0659332275391	432.5934753417969	-1029.8349609375	118.0311889648438	346.5506591796876	-1020.167907714844	147.9217834472656	275.5855407714844	-1004.393798828125	106.6776351928711	286.0764160156251	-1030.287353515625	124.7581329345703	85.00359344482428	-1041.799560546875	188.7758483886719	95.64205169677741	-1114.639038085938	90.59721374511719	63.2767639160157	-1115.026245117188	292.6642456054688	47.71067047119147	-1043.84912109375	216.4665069580078	39.45857620239263	-964.3185424804688	313.68359375	1366.900390625	-1205.78125	345.5246276855469	1221.363647460938	-1206.542236328125	192.3166809082031	1434.713623046875	-1357.378295898438	159.7356872558594	1408.71875	-1496.3837890625	149.168701171875	1382.758666992188	-1556.4189453125	192.9190521240234	1410.963134765625	-1553.286010742188	174.2246246337891	1398.131591796875	-1660.991821289062	247.6775970458984	1307.910766601562	-1658.061889648438	173.1427307128906	1372.074096679688	-1751.136840820312	166.6073455810547	1312.398071289062	-1803.658447265625	178.43798828125	1360.817993164062	-1812.047119140625	191.8782348632812	1351.044555664063	-1916.32275390625	271.2264404296875	1347.901611328125	-1908.335083007812	191.5272979736328	1430.841430664062	-1066.472534179688	148.5845184326172	1413.5869140625	-943.6995239257811	166.1874389648438	1411.2431640625	-880.0012817382811	119.7496948242188	1391.291625976562	-889.9303588867186	142.1308746337891	1394.031005859375	-775.1885986328124	198.8428344726562	1298.720703125	-774.9622192382811	130.8452606201172	1374.551635742188	-676.1179809570311	147.0389404296875	1416.817993164062	-610.4703369140624	130.3087158203125	1369.295043945312	-613.8225708007811	141.9119110107422	1381.619750976562	-521.3123168945311	220.4146118164062	1356.661743164062	-509.3396606445312	nan	nan	nan	
2	0.005	960.72021484375	36.17505645751965	-1933.681518554688	1063.19873046875	33.01889038085937	86.68428039550781	353.1599426269531	1606.55712890625	-1194.122924804688	302.1438293457031	1632.521118164062	-1131.638427734375	312.2391967773438	1631.82958984375	-1267.854125976562	130.8284454345703	1438.560302734375	-1211.35400390625	nan	nan	nan	89.45222473144531	1229.437866210938	-1242.250122070312	83.63792419433594	1220.467895507812	-1192.787963867188	96.88938140869141	1165.00537109375	-1227.140502929688	113.4901733398438	1101.43896484375	-1223.849731445312	85.79640197753906	1080.146362304688	-1238.463989257812	85.09203338623047	1076.969482421875	-1188.125	79.07777404785156	1017.354797363281	-1218.010009765625	95.52059936523438	957.6967773437501	-1242.171142578125	95.95599365234375	955.6641845703126	-1190.844848632812	77.79103851318359	898.2299194335939	-1218.187744140625	326.8402099609375	936.1463012695314	-1332.984375	317.164794921875	927.6488647460939	-1085.92724609375	108.2647094726562	975.2109375000001	-1260.897705078125	108.2048492431641	966.4291992187501	-1176.488159179688	188.9594421386719	682.8126220703126	-1402.777709960938	140.0782470703125	629.0269165039064	-1369.893920898438	186.4169464111328	622.8414916992189	-1388.63916015625	236.0197906494141	487.5440368652344	-1384.967529296875	257.3886108398438	464.3833618164063	-1262.193359375	193.6284637451172	425.2634887695313	-1389.695190429688	159.7249145507812	328.0977783203126	-1404.821533203125	110.3269653320312	266.7764587402344	-1391.668579101562	159.4274291992188	266.3283996582032	-1402.816650390625	142.6298217773438	81.13407135009774	-1381.73046875	183.4511413574219	89.70941925048837	-1295.841674804688	94.86153411865234	67.19332885742196	-1318.434936523438	309.8378295898438	47.75257873535165	-1348.643920898438	253.0296173095703	31.26041984558114	-1443.672607421875	154.964599609375	696.2532348632814	-1026.810302734375	205.9356842041016	638.2985229492189	-1006.360656738281	162.8750152587891	635.0627441406251	-1031.649780273438	198.3724060058594	496.6873474121094	-1027.227172851562	237.0812072753906	464.5843811035157	-1148.60888671875	152.0585327148438	432.5921936035157	-1029.842529296875	118.0226364135742	346.5534973144532	-1020.1689453125	147.9044036865234	275.5965881347657	-1004.393371582031	106.6743698120117	286.0798950195313	-1030.284057617188	124.7591323852539	85.00434112548834	-1041.796508789062	188.7839508056641	95.64580535888679	-1114.6513671875	90.58988952636719	63.28681945800788	-1115.048461914062	292.6722412109375	47.70419311523444	-1043.857177734375	216.4580841064453	39.45016098022467	-964.3265380859375	313.7279663085938	1366.8916015625	-1205.75732421875	345.5703430175781	1221.35107421875	-1206.523193359375	192.3540344238281	1434.719482421875	-1357.352661132812	159.7763061523438	1408.729614257812	-1496.357788085938	148.963134765625	1382.544311523438	-1556.441772460938	192.9621887207031	1410.965454101562	-1553.25390625	174.2503967285156	1398.162841796875	-1660.95166015625	247.7035827636719	1307.951049804688	-1658.041015625	173.1597137451172	1372.123779296875	-1751.0947265625	166.5946655273438	1312.461181640625	-1803.649536132812	178.4583892822266	1360.869995117188	-1812.024047851562	191.8781127929688	1351.10791015625	-1916.296875	271.2279968261719	1347.948364257813	-1908.305419921875	191.5904541015625	1430.8310546875	-1066.437622070312	148.6422882080078	1413.562255859375	-943.6696777343749	166.2403259277344	1411.232421875	-879.9597778320311	119.8078765869141	1391.272583007812	-889.9177246093749	142.1891326904297	1394.005004882812	-775.1651000976561	198.8786163330078	1298.694702148438	-774.9503784179686	130.8894805908203	1374.52978515625	-676.0901489257811	147.0744934082031	1416.785034179688	-610.4315795898436	130.3509063720703	1369.25244140625	-613.8051147460936	141.9670715332031	1381.59521484375	-521.3052368164061	220.4493408203125	1356.620361328125	-509.3043518066406	91.28125	1266.421508789062	-1220.331909179688	
3	0.01	960.7273559570312	36.16849517822278	-1933.68115234375	1063.204345703125	33.00764846801757	86.68151092529297	353.2344360351562	1606.51416015625	-1194.053466796875	302.2246704101562	1632.47412109375	-1131.5830078125	312.3342895507812	1631.792114257812	-1267.794555664062	130.8552398681641	1438.56884765625	-1211.326782226562	nan	nan	nan	89.49466705322266	1229.437255859375	-1242.23095703125	83.6690673828125	1220.481689453125	-1192.765625	96.94140625	1165.003784179688	-1227.125610351562	113.5500564575195	1101.4404296875	-1223.82763671875	85.86370849609375	1080.151245117188	-1238.449951171875	85.14783477783203	1076.986328125	-1188.114013671875	79.11310577392578	1017.3603515625	-1217.98388671875	95.5537109375	957.7219848632814	-1242.163330078125	95.99111175537109	955.6752929687501	-1190.825561523438	77.80397033691406	898.2537231445314	-1218.176025390625	326.8768005371094	936.1347656250001	-1332.9775390625	317.2035522460938	927.6236572265626	-1085.90380859375	108.2963714599609	975.2265014648439	-1260.896606445312	108.2420196533203	966.4505004882814	-1176.478393554688	189.1054534912109	682.8511962890626	-1402.437622070312	140.0941467285156	629.0350341796876	-1369.896728515625	186.4280395507812	622.8486938476564	-1388.635131835938	236.0201416015625	487.5412597656251	-1384.964721679688	257.2733459472656	464.3422546386719	-1262.273681640625	193.6279907226562	425.2609252929688	-1389.692260742188	159.7310028076172	328.091522216797	-1404.810913085938	110.3023452758789	266.7861022949219	-1391.690063476562	159.4331665039062	266.3209838867189	-1402.816040039062	142.6359100341797	81.14074707031259	-1381.732299804688	183.4528656005859	89.70211029052743	-1295.845581054688	94.85616302490234	67.19090270996102	-1318.436157226562	309.8395385742188	47.74961471557626	-1348.64794921875	253.0470428466797	31.24681854248056	-1443.688232421875	154.9584503173828	696.2656250000001	-1026.807495117188	205.9417114257812	638.2976684570314	-1006.363525390625	162.8748779296875	635.0758666992189	-1031.646362304688	198.3552398681641	496.6925659179688	-1027.219970703125	237.0703582763672	464.5772399902344	-1148.616333007812	152.0489501953125	432.5985107421876	-1029.840942382812	118.0176239013672	346.5516662597657	-1020.177001953125	147.9046325683594	275.5824279785157	-1004.412109375	106.6686019897461	286.0861206054688	-1030.286987304688	124.7579650878906	84.99692535400396	-1041.802490234375	188.7833862304688	95.6213684082032	-1114.645629882812	90.57666778564453	63.28463363647468	-1115.049926757812	292.66064453125	47.70502471923835	-1043.859497070312	216.4595184326172	39.45175933837896	-964.3230590820312	313.764892578125	1366.898315429688	-1205.736938476562	345.6116333007812	1221.349609375	-1206.510131835938	192.3984069824219	1434.719360351562	-1357.3154296875	159.8043518066406	1408.752075195312	-1496.306518554688	149.2273712158203	1382.81103515625	-1556.370361328125	192.9912567138672	1410.981079101562	-1553.212768554688	174.29833984375	1398.197631835938	-1660.915161132812	247.7191772460938	1307.973876953125	-1658.022705078125	173.8934936523438	1372.091918945312	-1750.637573242188	166.6074981689453	1312.503540039062	-1803.62158203125	178.4698791503906	1360.925415039062	-1811.989135742188	191.8837127685547	1351.17919921875	-1916.275268554688	271.2349243164062	1347.99951171875	-1908.27880859375	191.6285705566406	1430.82373046875	-1066.397705078125	148.6893157958984	1413.545532226562	-943.6406860351561	166.2968597412109	1411.214111328125	-879.9350585937499	119.8411026000977	1391.265258789062	-889.8389892578124	142.2350463867188	1393.984985351562	-775.1295776367186	198.9424896240234	1298.66552734375	-774.9270019531249	130.9446411132812	1374.4970703125	-676.0657958984374	147.1262817382812	1416.74853515625	-610.4086303710936	130.3986358642578	1369.217407226562	-613.7691040039061	142.0121002197266	1381.55419921875	-521.2677001953124	220.4887847900391	1356.560424804688	-509.2742614746093	91.34017181396484	1266.425903320312	-1220.300537109375	
4	0.015	960.7238159179688	36.17370223999036	-1933.686645507812	1063.197631835938	33.01414489746093	86.68395233154297	353.3158264160156	1606.463500976562	-1193.997314453125	302.3309936523438	1632.44189453125	-1131.528564453125	311.9674377441406	1631.593872070312	-1267.036010742188	130.9180908203125	1438.568237304688	-1211.287231445312	nan	nan	nan	89.5482177734375	1229.445068359375	-1242.211669921875	83.71700286865234	1220.467407226562	-1192.741333007812	96.99142456054688	1165.002197265625	-1227.106079101562	113.5918350219727	1101.447631835938	-1223.813720703125	85.89133453369141	1080.17431640625	-1238.44873046875	85.17991638183594	1076.989501953125	-1188.103881835938	79.13054656982422	1017.40087890625	-1218.008422851562	95.60394287109375	957.7393798828126	-1242.1484375	96.04264831542969	955.6939086914064	-1190.826293945312	77.85995483398438	898.2650756835939	-1218.165283203125	326.9152526855469	936.1203613281251	-1332.972045898438	317.2264709472656	927.6248779296876	-1085.90234375	108.321891784668	975.2571411132814	-1260.8974609375	108.2721099853516	966.4684448242189	-1176.473754882812	189.1108856201172	682.8582763671876	-1402.431762695312	140.1034088134766	629.0413208007814	-1369.888305664062	186.4393615722656	622.8424682617189	-1388.6279296875	236.0181427001953	487.5466308593751	-1384.963500976562	257.3462524414062	464.3019714355469	-1262.225219726562	193.6337127685547	425.2625427246094	-1389.68701171875	159.7335815429688	328.0984191894532	-1404.809936523438	110.3111267089844	266.7768859863282	-1391.679931640625	159.4345550537109	266.3150329589845	-1402.81640625	142.6272430419922	81.1461715698243	-1381.738403320312	183.4477081298828	89.70790100097665	-1295.849487304688	94.85841369628906	67.19156646728524	-1318.435424804688	309.8358459472656	47.75172042846688	-1348.646240234375	253.0226287841797	31.26028060913095	-1443.689086914062	154.9761657714844	696.2647705078126	-1026.813110351562	205.9503173828125	638.2979125976564	-1006.367248535156	162.8875427246094	635.0709838867189	-1031.642211914062	198.365966796875	496.6916503906251	-1027.229370117188	237.0733337402344	464.5662536621094	-1148.619262695312	152.0433807373047	432.5994567871094	-1029.84765625	118.0108413696289	346.5564880371094	-1020.173278808594	147.900634765625	275.5940856933594	-1004.389892578125	106.6626586914062	286.0833435058594	-1030.28759765625	124.7504730224609	85.00278472900396	-1041.796508789062	188.7713775634766	95.65018463134773	-1114.645385742188	90.57781219482422	63.28659439086921	-1115.025634765625	292.6621704101562	47.69404220581061	-1043.86083984375	216.4558563232422	39.45819473266607	-964.3215942382812	313.8091735839844	1366.889892578125	-1205.714721679688	345.6484375	1221.336181640625	-1206.504516601562	192.4488525390625	1434.717407226562	-1357.28271484375	159.8653564453125	1408.772827148438	-1496.269409179688	149.0088653564453	1382.582275390625	-1556.391845703125	193.0326385498047	1411.002197265625	-1553.192016601562	174.1724395751953	1398.311645507812	-1660.837036132812	247.7432556152344	1308.017333984375	-1658.005615234375	173.1891632080078	1372.220581054688	-1751.039916992188	166.6229248046875	1312.552856445312	-1803.584594726562	178.4896087646484	1360.969848632812	-1811.942016601562	191.8939056396484	1351.240478515625	-1916.246459960938	271.2486877441406	1348.059448242188	-1908.259887695312	191.6887664794922	1430.808227539062	-1066.358154296875	148.7443389892578	1413.517700195312	-943.5994873046874	166.3340759277344	1411.181884765625	-879.8947143554686	119.9407958984375	1391.1953125	-889.8904418945311	142.2993621826172	1393.965698242188	-775.1027221679686	198.9947662353516	1298.65283203125	-774.9007568359374	130.9975891113281	1374.470458984375	-676.0409545898436	147.1823272705078	1416.725341796875	-610.3680419921874	130.4512786865234	1369.189453125	-613.7402954101561	142.0632781982422	1381.536254882812	-521.2461547851561	220.5238800048828	1356.515014648438	-509.2384948730468	91.37858581542969	1266.425415039062	-1220.287719726562	
